# xmcd
#
# Track frame offsets:
#       150
#       16907
#       35322
#       53396
#       74880
#       91911
#       108015
#       132976
#       149394
#       167937
#       185494
#       201785
#       216917
#       236586
#       254519
#
# Disc length: 3594 seconds
#
# Revision: 0
# Processed by: cddbd v1.5.2PL0 Copyright (c) Steve Scherf et al.
# Submitted via: WaveLab 6.10
#
DISCID=d70e080f
DTITLE=Wayne Brauer - Catch The World-Valerie Shearman
DYEAR=1900
DGENRE=
TTITLE0=Crimson Sky 
TTITLE1=Hot Coals of Fire
TTITLE2=Mirror
TTITLE3=Superstar
TTITLE4=Listen To Me
TTITLE5=Cool Breeze
TTITLE6=Fantasy
TTITLE7=Catch The World 
TTITLE8=Where Were We Then
TTITLE9=Synchronicity
TTITLE10=Takin Back My Life
TTITLE11=Don't Let The World Pass You By
TTITLE12=Do It All Over Again
TTITLE13=Lover of Mine
TTITLE14=Wishing Made It So
EXTD=
EXTT0=
EXTT1=
EXTT2=
EXTT3=
EXTT4=
EXTT5=
EXTT6=
EXTT7=
EXTT8=
EXTT9=
EXTT10=
EXTT11=
EXTT12=
EXTT13=
EXTT14=
PLAYORDER=
